<?xml version="1.0" encoding="UTF-8"?>
<!DOCTYPE svg PUBLIC "-//W3C//DTD SVG 1.1//EN" "http://www.w3.org/Graphics/SVG/1.1/DTD/svg11.dtd">
<svg xmlns="http://www.w3.org/2000/svg" version="1.1" width="1681px" height="1279px" style="shape-rendering:geometricPrecision; text-rendering:geometricPrecision; image-rendering:optimizeQuality; fill-rule:evenodd; clip-rule:evenodd" xmlns:xlink="http://www.w3.org/1999/xlink">
<g><path style="opacity:0.994" fill="#f1ba04" d="M 382.5,193.5 C 387.267,193.191 391.934,193.691 396.5,195C 431.704,223.203 463.204,255.037 491,290.5C 532.128,341.712 566.462,397.379 594,457.5C 613.469,439.699 632.636,421.532 651.5,403C 692.076,366.789 738.076,358.122 789.5,377C 796.989,380.241 803.989,384.241 810.5,389C 866.017,388.364 921.517,386.864 977,384.5C 979.167,384.667 981.333,384.833 983.5,385C 986.092,387.011 985.925,388.844 983,390.5C 928.147,400.448 873.314,410.448 818.5,420.5C 770.272,630.551 638.605,743.718 423.5,760C 361.804,771.344 302.138,789.344 244.5,814C 200.653,832.422 157.653,852.756 115.5,875C 107.988,876.495 103.321,873.495 101.5,866C 102.255,863.825 103.088,861.659 104,859.5C 195.194,767.973 286.694,676.806 378.5,586C 301.965,524.148 236.798,452.315 183,370.5C 172.201,353.683 162.201,336.35 153,318.5C 148.51,311.258 147.51,303.591 150,295.5C 154.631,288.435 161.131,285.602 169.5,287C 222.121,299.54 272.454,318.206 320.5,343C 379.498,372.981 433.831,409.647 483.5,453C 500.464,469.457 516.131,486.957 530.5,505.5C 536.634,501.864 542.634,498.031 548.5,494C 530.729,468.886 510.062,446.22 486.5,426C 455.341,400.169 422.507,376.669 388,355.5C 376.174,306.555 370.841,256.888 372,206.5C 373.534,200.477 377.034,196.144 382.5,193.5 Z"/></g>
<g><path style="opacity:0.991" fill="#132913" d="M 1166.5,444.5 C 1170.23,444.177 1173.89,444.511 1177.5,445.5C 1217.94,541.385 1258.11,637.385 1298,733.5C 1304.05,747.931 1311.38,761.597 1320,774.5C 1330.68,784.92 1343.51,790.587 1358.5,791.5C 1358.5,795.167 1358.5,798.833 1358.5,802.5C 1312.5,802.667 1266.5,802.5 1220.5,802C 1219.54,798.606 1219.21,795.106 1219.5,791.5C 1229.75,791.217 1239.42,788.717 1248.5,784C 1253.03,780.273 1255.36,775.44 1255.5,769.5C 1254.13,759.874 1251.63,750.541 1248,741.5C 1240.17,723.167 1232.33,704.833 1224.5,686.5C 1179.5,685.333 1134.5,685.167 1089.5,686C 1080.67,706.483 1071.84,726.983 1063,747.5C 1060.3,754.453 1058.47,761.619 1057.5,769C 1057.43,775.863 1060.43,780.863 1066.5,784C 1076.05,788.313 1086.05,790.813 1096.5,791.5C 1097.49,795.107 1097.82,798.774 1097.5,802.5C 1060.83,802.5 1024.17,802.5 987.5,802.5C 987.207,798.563 987.54,794.73 988.5,791C 1001.43,790.034 1012.26,784.867 1021,775.5C 1027.51,766.484 1033.01,756.817 1037.5,746.5C 1081.07,646.033 1124.07,545.366 1166.5,444.5 Z M 1157.5,526.5 C 1177.53,572.235 1197.2,618.235 1216.5,664.5C 1177.17,665.833 1137.83,665.833 1098.5,664.5C 1118.18,618.479 1137.85,572.479 1157.5,526.5 Z"/></g>
<g><path style="opacity:0.996" fill="#122a12" d="M 820.5,452.5 C 870.833,452.5 921.167,452.5 971.5,452.5C 971.5,455.833 971.5,459.167 971.5,462.5C 960.626,461.933 949.96,463.1 939.5,466C 927.758,471.301 921.924,480.467 922,493.5C 921.333,583.167 921.333,672.833 922,762.5C 923.576,780.407 933.409,789.907 951.5,791C 958.158,791.5 964.825,791.666 971.5,791.5C 971.5,794.833 971.5,798.167 971.5,801.5C 921.167,801.5 870.833,801.5 820.5,801.5C 820.5,798.167 820.5,794.833 820.5,791.5C 833.798,792.721 846.465,790.554 858.5,785C 866.376,778.388 870.21,769.888 870,759.5C 870.167,715 870.333,670.5 870.5,626C 870.647,578.809 870.147,531.643 869,484.5C 866.687,476.184 861.52,470.351 853.5,467C 842.795,463.453 831.795,461.953 820.5,462.5C 820.5,459.167 820.5,455.833 820.5,452.5 Z"/></g>
</svg>
