<svg xmlns="http://www.w3.org/2000/svg" xmlns:xlink="http://www.w3.org/1999/xlink" version="1.1" viewBox="699 0 602 121"><svg xml:space="preserve" width="2000" height="121" data-version="2" data-id="lg_xIb4kZFkFXUhR0P2IN" viewBox="0 0 602 121" x="0" y="0"><rect width="100%" height="100%" fill="transparent"/><path fill="#393e46" d="M167.18 64.023h-7.28V2.153h12.45q3.69 0 5.99 1.23 2.3 1.23 3.53 3.55t1.67 5.59q.44 3.27.44 7.35v.95q0 6.22-.96 10.44-.97 4.22-3.48 6.34-2.52 2.13-7.19 2.13h-5.17zm0-56.11v25.77h4.43q2.14 0 3.23-1.21 1.09-1.21 1.5-4.02.4-2.82.4-7.63v-1.2q0-5.98-.91-8.84-.92-2.87-4.05-2.87zm27.77 56.11h-6.92l9.38-61.87h8.76l10.23 61.87h-6.86l-1.76-11.81h-11.21zm6.93-50.41-4.5 32.69h9.49l-4.89-32.69zm28.61 50.41h-7.27V2.153h12.97q4.92 0 7.28 1.74 2.35 1.74 3.07 5.24.72 3.5.72 8.8 0 5.73-1.16 9.11-1.16 3.37-4.5 4.36 1.69.28 2.8 1.44 1.11 1.16 1.74 3.62.63 2.46.9 6.59.26 4.13.26 10.39v1.72q0 1.13.03 2.47.04 1.33.09 2.63.06 1.3.16 2.3.11 1.01.28 1.46h-7.24q-.14-.31-.25-1.4-.1-1.09-.17-2.89-.07-1.79-.11-4.27-.03-2.48-.03-5.55v-6.73q0-3.52-.3-5.37-.3-1.84-1.41-2.56-1.11-.72-3.53-.86l-4.33-.25zm0-56.11v20.89h4.65q2 0 3.07-.79 1.07-.8 1.46-3.17.39-2.37.39-7.12v-.42q0-3.94-.37-5.96t-1.43-2.72q-1.05-.71-3.19-.71zm29.36 56.11h-6.93l9.39-61.87h8.76l10.23 61.87h-6.86l-1.76-11.81h-11.21zm6.93-50.41-4.5 32.69h9.49l-4.89-32.69zm27.52 50.41h-6.18V2.153h8.36l9.57 49.46 9.1-49.46h8.4v61.87h-6.22v-23.41l.6-23.13-9.32 46.54h-5.2l-9.7-46.54.59 23.13zm50.98.71q-4.64 0-7.33-2.04-2.69-2.04-3.83-6.15-1.14-4.12-1.14-10.31v-27.28q0-5.34 1.05-9.28 1.05-3.94 3.76-6.12 2.71-2.17 7.67-2.17 3.72 0 6.08 1.24 2.35 1.25 3.64 3.55 1.28 2.31 1.77 5.54.49 3.24.49 7.24v27.28q0 6.19-1.1 10.31-1.11 4.11-3.77 6.15-2.65 2.04-7.29 2.04m0-6.26q2 0 3.06-1.14 1.05-1.15 1.44-3.82.39-2.67.39-7.21v-27.77q0-5.55-.88-8.23-.88-2.67-3.83-2.67-3.06 0-4.14 2.66-1.07 2.65-1.07 8.21v27.8q0 4.58.39 7.23.39 2.65 1.48 3.8 1.09 1.14 3.16 1.14m46.23 5.55h-7.28V2.153h7.28zm16.84 0h-6.71V2.153h5.48l14.34 42.12-.73-17.9V2.153h6.43v61.87h-5.34l-13.89-42.47.42 15.61zm38.92.71q-3.76 0-6.12-1.36-2.35-1.35-3.62-3.85-1.27-2.49-1.74-5.89-.47-3.39-.47-7.5v-6.01h7.06v6.29q0 6.5.93 9.3.93 2.79 4.03 2.79 2.14 0 3.15-1 1-1 1.28-3.21.28-2.22.28-5.84 0-4.15-1.46-7.14-1.46-2.99-4.2-5.73l-4.04-4.04q-1.76-1.79-3.45-3.92-1.69-2.13-2.79-4.83-1.11-2.71-1.11-6.19 0-4.68.98-8.09.99-3.41 3.59-5.27 2.6-1.86 7.38-1.86 3.76 0 6.03 1.3 2.27 1.3 3.41 3.7 1.14 2.41 1.51 5.72.37 3.3.37 7.31v3.66h-6.96v-4.15q0-3.76-.3-6.28-.3-2.51-1.21-3.78-.91-1.26-2.85-1.26-1.76 0-2.86.86-1.11.86-1.6 2.65-.5 1.8-.5 4.61 0 2.46.6 4.06.6 1.6 1.81 2.97 1.22 1.37 2.97 3.23l4.22 4.47q3.34 3.48 5.47 7.79 2.13 4.3 2.13 10 0 5.13-1.01 8.82-1 3.69-3.56 5.68-2.57 1.99-7.35 1.99m26.4-.71h-7.28V2.153h7.28zm20.57.6q-5.38 0-8.26-4.43-2.89-4.43-2.89-14.59v-25.94q0-4.08.58-7.4.58-3.33 1.99-5.75 1.41-2.43 3.85-3.73 2.44-1.3 6.17-1.3 3.87 0 6.17 1.32t3.5 3.74q1.19 2.43 1.58 5.8.39 3.38.39 7.46v4.78h-7.04v-8.05q0-4.5-.89-6.66-.9-2.17-3.71-2.17-2.99 0-4.15 2.57-1.16 2.57-1.16 9.07v26.02q0 7.1.97 10.16.96 3.05 4.13 3.05 3.02 0 4.09-3.07 1.08-3.08 1.08-10.29v-8.05h-5.03v-5.62h11.71v32.48h-3.84l-.98-4.78q-.99 2.6-3.11 3.99-2.13 1.39-5.15 1.39m29.84-.6h-7.27V2.153h7.27v26.47H534V2.153h7.28v61.87H534v-29.46h-9.92zm37.16 0H554V8.203h-6.82v-6.05h20.43v6.05h-6.37zm22.26.71q-3.76 0-6.12-1.36-2.35-1.35-3.62-3.85-1.27-2.49-1.74-5.89-.47-3.39-.47-7.5v-6.01h7.06v6.29q0 6.5.93 9.3.94 2.79 4.03 2.79 2.14 0 3.15-1 1-1 1.28-3.21.28-2.22.28-5.84 0-4.15-1.46-7.14-1.46-2.99-4.2-5.73l-4.04-4.04q-1.76-1.79-3.45-3.92-1.69-2.13-2.79-4.83-1.11-2.71-1.11-6.19 0-4.68.98-8.09.99-3.41 3.59-5.27 2.6-1.86 7.38-1.86 3.76 0 6.03 1.3 2.27 1.3 3.41 3.7 1.14 2.41 1.51 5.72.37 3.3.37 7.31v3.66h-6.96v-4.15q0-3.76-.3-6.28-.3-2.51-1.21-3.78-.91-1.26-2.85-1.26-1.76 0-2.86.86-1.11.86-1.6 2.65-.49 1.8-.49 4.61 0 2.46.59 4.06.6 1.6 1.81 2.97 1.22 1.37 2.97 3.23l4.22 4.47q3.34 3.48 5.47 7.79 2.13 4.3 2.13 10 0 5.13-1.01 8.82-1 3.69-3.56 5.68-2.57 1.99-7.35 1.99"/><path fill="#aad8d3" d="M163.14 113.653h-3.41l-3.97-30.08h3.27l2.56 23.05 3.42-23.05h2.89l3.5 23.05 2.17-23.05h3.25l-3.56 30.08h-3.5l-3.21-22.2zm22.36.31q-1.85 0-2.97-.65-1.12-.64-1.7-1.82-.58-1.17-.78-2.82-.19-1.65-.19-3.65v-9.06q0-1.81.25-3.32.26-1.52.89-2.62.64-1.1 1.76-1.71 1.13-.6 2.87-.6 1.76 0 2.84.61 1.08.62 1.63 1.74.56 1.11.75 2.66.18 1.55.18 3.39v4.84h-7.65v5.11q0 2.43.33 3.7.34 1.27 1.82 1.27.98 0 1.39-.6.42-.61.52-1.71.09-1.1.09-2.61v-2.07h3.44v1.1q0 2-.17 3.62-.16 1.62-.69 2.79-.53 1.16-1.63 1.78-1.1.63-2.98.63m-2.14-18.53v3.14h4.17v-3.26q0-1.54-.1-2.59-.1-1.05-.5-1.59-.39-.54-1.3-.54-1 0-1.49.62-.49.61-.63 1.7-.15 1.08-.15 2.52m23.93 18.22h-3.51v-30.4h3.51v16.95l5.04-12.19h3.54l-5.4 12.67 5.69 12.97h-3.61l-5.26-12.48zm15.21 0h-3.51v-25.64h3.51v2.72q.34-1.2 1.46-2.12 1.12-.92 2.67-.92 1.93 0 3.01 1.37 1.08 1.36 1.08 4.15v20.44h-3.51v-20.42q0-1.37-.61-1.99-.62-.61-1.57-.61-.7 0-1.29.31-.58.3-.91.95-.33.65-.33 1.68zm18.44.31q-1.81 0-2.94-.63-1.13-.62-1.74-1.78-.6-1.15-.83-2.76-.22-1.62-.22-3.62v-9.07q0-2.41.46-4.31.47-1.9 1.7-2.99 1.24-1.09 3.57-1.09 1.74 0 2.85.62t1.73 1.76q.61 1.14.84 2.67.23 1.53.23 3.34v9.07q0 1.97-.2 3.57-.21 1.61-.8 2.78-.59 1.17-1.7 1.8-1.12.64-2.95.64m0-2.93q.92 0 1.37-.61.46-.62.61-1.72.15-1.1.15-2.55v-10.75q0-1.44-.15-2.51-.15-1.07-.62-1.66-.46-.6-1.36-.6-.96 0-1.44.6-.48.59-.62 1.66-.15 1.07-.15 2.51v10.75q0 1.45.15 2.55.14 1.1.62 1.72.48.61 1.44.61m14.8 2.62h-3.1l-2.99-25.64h2.94l1.35 14.27.4 4.91h.15l.65-4.92 2.03-14.26h3.06l2.04 13.88.7 5.3h.13l.41-5.32 1.34-13.86h2.87l-3.1 25.64h-3.23l-2.58-20.07zm27.67.22q-2.33 0-3.35-1.8-1.03-1.81-1.05-5v-2.5q0-1.69.58-2.81.59-1.12 1.65-1.87 1.05-.75 2.49-1.36 1.44-.6 3.14-1.29v-1.98q0-1.64-.1-2.66-.1-1.01-.52-1.49-.42-.48-1.34-.48-.91 0-1.36.48-.45.48-.59 1.5-.14 1.03-.14 2.67v.89h-3.48v-.74q0-1.64.2-3.05.21-1.41.79-2.45.58-1.05 1.7-1.63 1.12-.59 2.95-.59 1.74 0 2.81.55 1.07.56 1.64 1.63.57 1.08.78 2.66.2 1.58.2 3.65v17.45h-3.52v-2.22q-.15.51-.6 1.08-.44.57-1.16.97-.72.39-1.72.39m.99-2.84q.92 0 1.59-.59.66-.59.88-1.17v-9.76q-1.31.59-2.16 1.06-.84.47-1.31.98-.47.51-.66 1.23-.19.72-.19 1.81v2.38q0 2.17.38 3.11.37.95 1.47.95m17.63 2.84q-1.04 0-1.99-.54t-1.49-1.84v2.16h-3.51v-30.4h3.51v6.8q.29-1.1 1.25-1.72.97-.62 2.01-.62 1.92 0 2.91 1.07.99 1.08 1.36 2.93.36 1.86.36 4.16v9.87q0 2.3-.35 4.15-.35 1.84-1.3 2.91-.95 1.07-2.76 1.07m-1.16-2.85q1.28-.02 1.67-1.29.38-1.26.38-3.99v-10.33q0-1.43-.12-2.5t-.54-1.67q-.41-.59-1.32-.59-.77 0-1.3.35t-.81 1.37q-.28 1.03-.28 3.06v10.39q0 2.6.43 3.9.44 1.3 1.89 1.3m15.54 2.94q-1.82 0-2.94-.63-1.13-.62-1.74-1.78-.6-1.15-.83-2.76-.22-1.62-.22-3.62v-9.07q0-2.41.46-4.31.46-1.9 1.7-2.99 1.24-1.09 3.57-1.09 1.74 0 2.85.62t1.73 1.76q.61 1.14.84 2.67.23 1.53.23 3.34v9.07q0 1.97-.2 3.57-.21 1.61-.8 2.78-.59 1.17-1.71 1.8-1.12.64-2.94.64m0-2.93q.92 0 1.37-.61.45-.62.61-1.72.15-1.1.15-2.55v-10.75q0-1.44-.15-2.51-.16-1.07-.62-1.66-.46-.6-1.36-.6-.96 0-1.44.6-.48.59-.62 1.66-.15 1.07-.15 2.51v10.75q0 1.45.15 2.55.14 1.1.62 1.72.48.61 1.44.61m14.37 2.96q-1.15 0-2.12-.56-.97-.57-1.57-1.82-.6-1.26-.6-3.29v-20.31h3.5v19.91q0 1.49.53 2.26.53.77 1.68.77 1.26 0 1.87-.88.61-.88.61-2.23v-19.83h3.52v25.64h-3.52v-2.62q-.38 1.2-1.36 2.08-.97.88-2.54.88m19.22-.19h-2.41q-1.64 0-2.47-.39-.84-.39-1.13-1.27-.29-.87-.29-2.3v-19.02h-2.34v-2.6h2.34v-4.65h3.5v4.65h2.77v2.6h-2.77v18.71q0 .65.17.97.17.31.77.41.6.11 1.86.11zm15.73.07q-1.9 0-2.83-1.11-.93-1.11-1.23-3.02-.3-1.9-.3-4.3v-9.68q0-2.3.42-4.12.42-1.82 1.48-2.87 1.07-1.06 2.99-1.06 1.01 0 1.8.58t1.2 1.43v-6.47h3.53v30.4h-3.53v-2.16q-.51 1.27-1.45 1.82-.94.56-2.08.56m1.21-2.85q.8 0 1.33-.41.52-.4.76-1.49.25-1.09.25-3.13v-10.29q0-2.49-.42-3.77-.42-1.28-1.83-1.28-1.29.01-1.71 1.25-.43 1.24-.43 3.89v10.36q0 1.48.15 2.58.14 1.09.58 1.69.45.6 1.32.6m14.68 2.85q-2.32 0-3.35-1.8-1.02-1.81-1.04-5v-2.5q0-1.69.58-2.81t1.64-1.87q1.06-.75 2.5-1.36 1.43-.6 3.14-1.29v-1.98q0-1.64-.1-2.66-.1-1.01-.52-1.49-.42-.48-1.35-.48-.9 0-1.35.48-.46.48-.59 1.5-.14 1.03-.14 2.67v.89h-3.49v-.74q0-1.64.21-3.05.2-1.41.78-2.45.59-1.05 1.71-1.63 1.11-.59 2.94-.59 1.75 0 2.81.55 1.07.56 1.65 1.63.57 1.08.77 2.66.21 1.58.21 3.65v17.45h-3.52v-2.22q-.16.51-.6 1.08-.45.57-1.16.97-.72.39-1.73.39m.99-2.84q.92 0 1.59-.59t.89-1.17v-9.76q-1.32.59-2.16 1.06-.85.47-1.32.98-.47.51-.66 1.23-.18.72-.18 1.81v2.38q0 2.17.37 3.11.38.95 1.47.95m17.48 2.77h-2.4q-1.65 0-2.48-.39-.84-.39-1.13-1.27-.29-.87-.29-2.3v-19.02h-2.34v-2.6h2.34v-4.65h3.5v4.65h2.77v2.6h-2.77v18.71q0 .65.17.97.17.31.77.41.6.11 1.86.11zm7.13.07q-2.32 0-3.35-1.8-1.02-1.81-1.04-5v-2.5q0-1.69.58-2.81t1.64-1.87q1.06-.75 2.5-1.36 1.43-.6 3.14-1.29v-1.98q0-1.64-.1-2.66-.1-1.01-.52-1.49-.42-.48-1.34-.48-.91 0-1.36.48-.46.48-.59 1.5-.14 1.03-.14 2.67v.89h-3.49v-.74q0-1.64.21-3.05.2-1.41.79-2.45.58-1.05 1.7-1.63 1.12-.59 2.94-.59 1.75 0 2.81.55 1.07.56 1.65 1.63.57 1.08.77 2.66.21 1.58.21 3.65v17.45h-3.52v-2.22q-.16.51-.6 1.08-.44.57-1.16.97-.72.39-1.73.39m.99-2.84q.93 0 1.59-.59.67-.59.89-1.17v-9.76q-1.32.59-2.16 1.06-.85.47-1.32.98-.47.51-.66 1.23-.18.72-.18 1.81v2.38q0 2.17.37 3.11.38.95 1.47.95"/><circle r="5.8" fill="#00adb5" transform="translate(19.34 52.211)scale(2.2864)"/><circle r="5.8" fill="#00adb5" transform="translate(58.667 23.631)scale(2.2864)"/><circle r="5.8" fill="#00adb5" transform="translate(97.993 55.183)scale(2.2864)"/><circle r="5.8" fill="#00adb5" transform="translate(61.182 102.283)scale(2.2864)"/><path fill="#00adb5" d="m29.858 43.98 18.063-12.575m22.178 0 17.376 15.548m1.83 18.52-19.206 26.75"/></svg></svg>