<?xml version="1.0" encoding="UTF-8"?>
<!DOCTYPE svg PUBLIC "-//W3C//DTD SVG 1.1//EN" "http://www.w3.org/Graphics/SVG/1.1/DTD/svg11.dtd">
<svg xmlns="http://www.w3.org/2000/svg" version="1.1" width="3279px" height="1763px" style="shape-rendering:geometricPrecision; text-rendering:geometricPrecision; image-rendering:optimizeQuality; fill-rule:evenodd; clip-rule:evenodd" xmlns:xlink="http://www.w3.org/1999/xlink">
<g><path style="opacity:0.994" fill="#f1ba04" d="M 1619.5,193.5 C 1625.27,192.775 1630.61,193.941 1635.5,197C 1683.77,237.924 1725.6,284.424 1761,336.5C 1787.3,374.75 1810.3,415.083 1830,457.5C 1848.14,441.033 1865.97,424.199 1883.5,407C 1925.99,366.691 1974.66,357.358 2029.5,379C 2035.83,382.165 2041.83,385.831 2047.5,390C 2099.49,388.709 2151.49,387.209 2203.5,385.5C 2209.17,385.833 2214.83,386.167 2220.5,386.5C 2221.86,388.306 2221.53,389.806 2219.5,391C 2164.17,400.943 2108.84,410.776 2053.5,420.5C 2037.39,504.379 2000.89,577.713 1944,640.5C 1882.98,700.762 1809.82,737.928 1724.5,752C 1694.77,755.925 1665.1,760.258 1635.5,765C 1576.24,778.302 1518.91,797.302 1463.5,822C 1425.65,838.926 1388.31,856.926 1351.5,876C 1339.92,876.294 1336.08,871.127 1340,860.5C 1431.37,768.959 1522.87,677.626 1614.5,586.5C 1525.52,514.378 1452.35,429.045 1395,330.5C 1391.39,323.621 1388.06,316.621 1385,309.5C 1382.95,296.567 1388.28,288.9 1401,286.5C 1457.83,299.5 1512,319.667 1563.5,347C 1623.4,377.605 1678.07,415.605 1727.5,461C 1741.35,474.734 1754.02,489.4 1765.5,505C 1772.44,502.689 1778.77,499.022 1784.5,494C 1766.99,470.487 1747.33,448.821 1725.5,429C 1693.52,401.929 1659.69,377.429 1624,355.5C 1611.6,305.523 1606.6,254.857 1609,203.5C 1611.08,198.584 1614.58,195.25 1619.5,193.5 Z"/></g>
<g><path style="opacity:0.996" fill="#122912" d="M 1747.5,895.5 C 1752.5,895.5 1757.5,895.5 1762.5,895.5C 1762.33,1004.83 1762.5,1114.17 1763,1223.5C 1763.45,1232.2 1766.62,1239.7 1772.5,1246C 1781.26,1250.37 1790.59,1252.21 1800.5,1251.5C 1800.79,1255.11 1800.46,1258.61 1799.5,1262C 1761.17,1262.67 1722.83,1262.67 1684.5,1262C 1683.54,1258.61 1683.21,1255.11 1683.5,1251.5C 1692.32,1251.81 1700.65,1249.98 1708.5,1246C 1715.08,1239.99 1718.25,1232.49 1718,1223.5C 1718.67,1137.83 1718.67,1052.17 1718,966.5C 1717.95,955.106 1715.95,944.106 1712,933.5C 1708.7,931.178 1705.03,929.844 1701,929.5C 1695.48,930.071 1690.14,931.405 1685,933.5C 1682.32,931.338 1680.49,928.504 1679.5,925C 1679.91,924.055 1680.57,923.388 1681.5,923C 1703.8,914.296 1725.8,905.129 1747.5,895.5 Z"/></g>
<g><path style="opacity:0.988" fill="#122912" d="M 495.5,904.5 C 514.712,903.491 533.712,904.991 552.5,909C 570.064,914.535 587.231,921.035 604,928.5C 609.714,927.644 614.38,924.977 618,920.5C 620.871,915.596 623.038,910.429 624.5,905C 627.817,904.502 631.15,904.335 634.5,904.5C 637.255,944.159 639.922,983.825 642.5,1023.5C 639.223,1023.78 636.057,1023.45 633,1022.5C 606.906,936.703 551.072,907.203 465.5,934C 438.97,948.539 420.47,970.039 410,998.5C 396.195,1038.41 391.528,1079.41 396,1121.5C 398.658,1154.84 410.658,1184.18 432,1209.5C 463.729,1238.96 501.229,1250.8 544.5,1245C 570.277,1240.86 592.443,1229.7 611,1211.5C 621.92,1199.92 632.086,1187.75 641.5,1175C 644.894,1175.68 647.894,1177.34 650.5,1180C 609.122,1252.35 547.122,1281.01 464.5,1266C 414.932,1254.14 378.432,1225.64 355,1180.5C 333.562,1133.33 329.562,1084.66 343,1034.5C 366.748,959.243 417.581,915.909 495.5,904.5 Z"/></g>
<g><path style="opacity:0.982" fill="#feb907" d="M 2764.5,928.5 C 2768.67,927.956 2772.51,928.623 2776,930.5C 2819.51,1035.85 2863.84,1140.85 2909,1245.5C 2919.23,1264.21 2935.06,1274.21 2956.5,1275.5C 2956.79,1279.11 2956.46,1282.61 2955.5,1286C 2909.83,1286.67 2864.17,1286.67 2818.5,1286C 2817.54,1282.61 2817.21,1279.11 2817.5,1275.5C 2826.95,1275.18 2835.95,1273.01 2844.5,1269C 2850.04,1265.59 2853.04,1260.59 2853.5,1254C 2852.37,1246.33 2850.54,1238.83 2848,1231.5C 2839.5,1211.17 2831,1190.83 2822.5,1170.5C 2777.27,1169.17 2732.1,1169.17 2687,1170.5C 2677.72,1191.38 2668.72,1212.38 2660,1233.5C 2649.14,1254.95 2655.31,1268.11 2678.5,1273C 2684.17,1273.92 2689.83,1274.75 2695.5,1275.5C 2695.5,1279.17 2695.5,1282.83 2695.5,1286.5C 2658.83,1286.67 2622.17,1286.5 2585.5,1286C 2584.21,1282.54 2584.21,1279.04 2585.5,1275.5C 2594.57,1273.9 2603.24,1271.07 2611.5,1267C 2619.01,1259.47 2625.18,1250.97 2630,1241.5C 2675.91,1137.59 2720.74,1033.26 2764.5,928.5 Z M 2755.5,1010.5 C 2775.26,1056.53 2794.93,1102.7 2814.5,1149C 2774.83,1149.67 2735.17,1149.67 2695.5,1149C 2715.92,1103 2735.92,1056.83 2755.5,1010.5 Z"/></g>
<g><path style="opacity:0.985" fill="#feb907" d="M 2418.5,936.5 C 2468.83,936.5 2519.17,936.5 2569.5,936.5C 2569.5,939.833 2569.5,943.167 2569.5,946.5C 2558.63,945.933 2547.96,947.1 2537.5,950C 2529.91,953.255 2524.74,958.755 2522,966.5C 2520.19,974.055 2519.19,981.722 2519,989.5C 2518.33,1070.83 2518.33,1152.17 2519,1233.5C 2519.27,1240.54 2519.94,1247.54 2521,1254.5C 2525.7,1267.79 2535.2,1274.62 2549.5,1275C 2556.16,1275.5 2562.83,1275.67 2569.5,1275.5C 2569.5,1278.83 2569.5,1282.17 2569.5,1285.5C 2519.17,1285.5 2468.83,1285.5 2418.5,1285.5C 2418.5,1282.17 2418.5,1278.83 2418.5,1275.5C 2429.38,1276.14 2440.05,1274.97 2450.5,1272C 2458.52,1268.65 2463.69,1262.82 2466,1254.5C 2466.96,1249.88 2467.62,1245.21 2468,1240.5C 2468.67,1153.17 2468.67,1065.83 2468,978.5C 2468.54,964.057 2462.04,954.557 2448.5,950C 2438.71,947.192 2428.71,946.026 2418.5,946.5C 2418.5,943.167 2418.5,939.833 2418.5,936.5 Z"/></g>
<g><path style="opacity:0.981" fill="#132913" d="M 1887.5,947.5 C 1890.45,947.223 1893.28,947.556 1896,948.5C 1896.5,974.165 1896.67,999.831 1896.5,1025.5C 1914.83,1025.5 1933.17,1025.5 1951.5,1025.5C 1951.81,1031.76 1951.48,1037.92 1950.5,1044C 1932.5,1044.5 1914.5,1044.67 1896.5,1044.5C 1896.33,1099.17 1896.5,1153.83 1897,1208.5C 1899.29,1230.8 1911.12,1238.63 1932.5,1232C 1938.87,1227.62 1943.87,1221.96 1947.5,1215C 1951.17,1214.33 1954.83,1214.33 1958.5,1215C 1953.38,1230.11 1945.05,1243.11 1933.5,1254C 1918.77,1264.88 1902.43,1268.21 1884.5,1264C 1867.89,1258.39 1858.06,1246.89 1855,1229.5C 1853.97,1224.22 1853.31,1218.88 1853,1213.5C 1852.5,1157.17 1852.33,1100.83 1852.5,1044.5C 1840.17,1044.5 1827.83,1044.5 1815.5,1044.5C 1815.18,1041.1 1815.51,1037.77 1816.5,1034.5C 1839.65,1022.85 1857.82,1005.85 1871,983.5C 1876.79,971.593 1882.29,959.593 1887.5,947.5 Z"/></g>
<g><path style="opacity:0.988" fill="#122912" d="M 788.5,1018.5 C 843.041,1015.68 881.541,1039.01 904,1088.5C 922.758,1142.37 914.092,1191.37 878,1235.5C 842.176,1269.06 801.01,1277.56 754.5,1261C 734.057,1251.21 717.891,1236.71 706,1217.5C 678.434,1168.69 678.767,1120.02 707,1071.5C 725.865,1041.15 753.031,1023.48 788.5,1018.5 Z M 789.5,1035.5 C 809.65,1035.66 825.817,1043.66 838,1059.5C 853.193,1081.41 861.86,1105.74 864,1132.5C 866.843,1157.41 865.509,1182.08 860,1206.5C 850.275,1241.11 827.775,1254.95 792.5,1248C 780.078,1243.58 769.912,1236.08 762,1225.5C 745.812,1200.27 736.812,1172.6 735,1142.5C 734.168,1127.47 734.501,1112.47 736,1097.5C 738.471,1076.05 747.638,1058.22 763.5,1044C 771.581,1039.03 780.248,1036.19 789.5,1035.5 Z"/></g>
<g><path style="opacity:0.991" fill="#122912" d="M 1004.5,1018.5 C 1008.83,1018.5 1013.17,1018.5 1017.5,1018.5C 1017.33,1034.5 1017.5,1050.5 1018,1066.5C 1032.95,1047.88 1051.11,1033.38 1072.5,1023C 1110.63,1011.14 1137.13,1023.64 1152,1060.5C 1153.97,1066.36 1155.3,1072.36 1156,1078.5C 1156.98,1128.17 1157.98,1177.84 1159,1227.5C 1162.44,1246.66 1173.94,1254.66 1193.5,1251.5C 1193.5,1254.83 1193.5,1258.17 1193.5,1261.5C 1154.17,1261.5 1114.83,1261.5 1075.5,1261.5C 1075.5,1258.17 1075.5,1254.83 1075.5,1251.5C 1086.77,1252.63 1097.11,1250.13 1106.5,1244C 1112.8,1235.99 1115.3,1226.82 1114,1216.5C 1114.67,1179.5 1114.67,1142.5 1114,1105.5C 1113.89,1092.27 1111.22,1079.6 1106,1067.5C 1099.96,1056.48 1090.63,1050.81 1078,1050.5C 1059.47,1052.35 1043.3,1059.52 1029.5,1072C 1025.67,1075.83 1021.83,1079.67 1018,1083.5C 1017.04,1133.19 1017.37,1182.86 1019,1232.5C 1022.02,1242.62 1028.85,1248.45 1039.5,1250C 1044.79,1250.98 1050.13,1251.48 1055.5,1251.5C 1055.5,1254.83 1055.5,1258.17 1055.5,1261.5C 1016.5,1261.5 977.5,1261.5 938.5,1261.5C 938.5,1258.17 938.5,1254.83 938.5,1251.5C 949.75,1252.83 959.583,1249.83 968,1242.5C 972.426,1233.37 974.426,1223.7 974,1213.5C 974.667,1178.17 974.667,1142.83 974,1107.5C 973.709,1096.48 973.042,1085.48 972,1074.5C 971.291,1069 969.958,1063.67 968,1058.5C 964.761,1055.08 960.761,1053.42 956,1053.5C 950.253,1053.88 944.753,1055.22 939.5,1057.5C 937.61,1054.73 935.943,1051.73 934.5,1048.5C 935.09,1047.2 936.09,1046.37 937.5,1046C 960.054,1037.1 982.388,1027.93 1004.5,1018.5 Z"/></g>
<g><path style="opacity:0.987" fill="#122912" d="M 1282.5,1018.5 C 1291.55,1018.24 1300.55,1018.74 1309.5,1020C 1320.85,1022.84 1332.18,1025.67 1343.5,1028.5C 1348.82,1027.01 1352.82,1023.85 1355.5,1019C 1358.48,1018.5 1361.48,1018.34 1364.5,1018.5C 1364.5,1045.5 1364.5,1072.5 1364.5,1099.5C 1361.22,1099.78 1358.06,1099.45 1355,1098.5C 1351.21,1079.44 1343.05,1062.6 1330.5,1048C 1312.27,1033.74 1292.27,1030.74 1270.5,1039C 1256.43,1045.41 1250.59,1056.24 1253,1071.5C 1257.42,1085.92 1266.25,1096.75 1279.5,1104C 1298.55,1114.19 1317.89,1123.86 1337.5,1133C 1355.67,1141.83 1369.17,1155.33 1378,1173.5C 1389.37,1215.06 1375.54,1244.9 1336.5,1263C 1317.56,1269.76 1298.22,1271.09 1278.5,1267C 1265.98,1264.24 1253.48,1261.41 1241,1258.5C 1236.68,1259.07 1233.51,1261.24 1231.5,1265C 1228.18,1265.5 1224.85,1265.67 1221.5,1265.5C 1221.5,1237.17 1221.5,1208.83 1221.5,1180.5C 1224.83,1180.5 1228.17,1180.5 1231.5,1180.5C 1235.06,1203.13 1245.06,1222.29 1261.5,1238C 1278.35,1251.63 1297.35,1255.96 1318.5,1251C 1339.95,1242.35 1347.45,1226.85 1341,1204.5C 1335.32,1193.15 1327.15,1183.98 1316.5,1177C 1299.66,1167.75 1282.66,1158.75 1265.5,1150C 1252.01,1143.34 1240.51,1134.17 1231,1122.5C 1216.28,1096.24 1217.28,1070.58 1234,1045.5C 1246.84,1030.33 1263.01,1021.33 1282.5,1018.5 Z"/></g>
<g><path style="opacity:0.988" fill="#122912" d="M 2077.5,1018.5 C 2139.87,1016.94 2180.37,1045.94 2199,1105.5C 2209.24,1154.08 2198.58,1197.41 2167,1235.5C 2136.48,1265.08 2100.31,1275.25 2058.5,1266C 2030.75,1258.38 2009.58,1242.22 1995,1217.5C 1967.41,1168.71 1967.74,1120.04 1996,1071.5C 2014.86,1041.15 2042.03,1023.48 2077.5,1018.5 Z M 2078.5,1035.5 C 2098.65,1035.66 2114.82,1043.66 2127,1059.5C 2141.99,1081.12 2150.65,1105.12 2153,1131.5C 2155.41,1153.93 2154.74,1176.27 2151,1198.5C 2141.4,1243.46 2114.9,1258.63 2071.5,1244C 2057.38,1234.61 2046.88,1222.11 2040,1206.5C 2023.19,1166.43 2019.19,1125.1 2028,1082.5C 2032.51,1066.27 2041.35,1053.1 2054.5,1043C 2062.06,1038.67 2070.06,1036.17 2078.5,1035.5 Z"/></g>
<g><path style="opacity:0.993" fill="#122912" d="M 2293.5,1018.5 C 2297.83,1018.5 2302.17,1018.5 2306.5,1018.5C 2306.33,1035.5 2306.5,1052.5 2307,1069.5C 2315.43,1053.48 2326.6,1039.65 2340.5,1028C 2354.5,1017.49 2369.5,1015.82 2385.5,1023C 2400.13,1032.85 2403.63,1045.68 2396,1061.5C 2390.07,1070.15 2381.91,1073.31 2371.5,1071C 2361.87,1066.19 2352.54,1060.85 2343.5,1055C 2340.37,1054.21 2337.37,1054.54 2334.5,1056C 2322.55,1066.38 2313.38,1078.88 2307,1093.5C 2306.33,1132.83 2306.33,1172.17 2307,1211.5C 2306.61,1239.61 2320.44,1252.94 2348.5,1251.5C 2348.5,1254.83 2348.5,1258.17 2348.5,1261.5C 2307.83,1261.5 2267.17,1261.5 2226.5,1261.5C 2226.5,1258.17 2226.5,1254.83 2226.5,1251.5C 2237.82,1252.13 2247.99,1249.13 2257,1242.5C 2259.41,1239.94 2261.08,1236.94 2262,1233.5C 2263.63,1181.52 2263.96,1129.52 2263,1077.5C 2260.87,1054.18 2249.04,1047.51 2227.5,1057.5C 2225.68,1054.54 2224.35,1051.38 2223.5,1048C 2246.94,1038.25 2270.27,1028.41 2293.5,1018.5 Z"/></g>
<g><path style="opacity:0.984" fill="#122912" d="M 1400.5,1025.5 C 1428.5,1025.5 1456.5,1025.5 1484.5,1025.5C 1484.02,1084.87 1484.52,1144.2 1486,1203.5C 1492.37,1231.45 1509.54,1241.62 1537.5,1234C 1553.58,1226.93 1567.74,1217.09 1580,1204.5C 1580.97,1154.47 1580.64,1104.47 1579,1054.5C 1576.75,1045.25 1570.91,1039.75 1561.5,1038C 1555.54,1037 1549.54,1036.34 1543.5,1036C 1542.54,1032.61 1542.21,1029.11 1542.5,1025.5C 1569.83,1025.5 1597.17,1025.5 1624.5,1025.5C 1624.33,1083.5 1624.5,1141.5 1625,1199.5C 1625.4,1208.32 1626.74,1216.99 1629,1225.5C 1631.51,1231.76 1636.18,1234.76 1643,1234.5C 1648.52,1233.95 1653.86,1232.62 1659,1230.5C 1661.05,1232.96 1662.55,1235.79 1663.5,1239C 1640.49,1249.5 1617.15,1259.5 1593.5,1269C 1589.18,1269.5 1584.85,1269.67 1580.5,1269.5C 1580.67,1253.16 1580.5,1236.83 1580,1220.5C 1567.68,1235.49 1553.51,1248.33 1537.5,1259C 1513.74,1272.94 1490.08,1272.94 1466.5,1259C 1451.42,1244.47 1443.25,1226.63 1442,1205.5C 1441.04,1155.82 1440.04,1106.15 1439,1056.5C 1436.95,1044.9 1430.12,1038.4 1418.5,1037C 1412.83,1036.67 1407.17,1036.33 1401.5,1036C 1400.54,1032.61 1400.21,1029.11 1400.5,1025.5 Z"/></g>
<g><path style="opacity:0.863" fill="#000000" d="M 1042.5,1439.5 C 1052.82,1439.32 1055.15,1443.49 1049.5,1452C 1043.61,1453.57 1040.28,1451.4 1039.5,1445.5C 1039.63,1443.05 1040.63,1441.05 1042.5,1439.5 Z"/></g>
<g><path style="opacity:0.862" fill="#000000" d="M 1292.5,1439.5 C 1298.01,1438.42 1301.35,1440.59 1302.5,1446C 1301.14,1451.36 1297.81,1453.36 1292.5,1452C 1287.23,1447.84 1287.23,1443.67 1292.5,1439.5 Z"/></g>
<g><path style="opacity:0.909" fill="#000000" d="M 1361.5,1439.5 C 1363.5,1439.5 1365.5,1439.5 1367.5,1439.5C 1367.33,1465.17 1367.5,1490.84 1368,1516.5C 1368.46,1521.38 1370.96,1522.71 1375.5,1520.5C 1376.29,1521.24 1376.95,1522.08 1377.5,1523C 1370.86,1526.66 1363.86,1529.16 1356.5,1530.5C 1356.66,1528.14 1356.5,1525.81 1356,1523.5C 1341.14,1534.63 1328.8,1532.3 1319,1516.5C 1312.79,1499.18 1316.62,1484.68 1330.5,1473C 1336.79,1469.72 1343.46,1468.72 1350.5,1470C 1352.59,1470.79 1354.42,1471.96 1356,1473.5C 1356.72,1465.46 1356.39,1457.46 1355,1449.5C 1352.67,1448.17 1350.33,1448.17 1348,1449.5C 1347.63,1448.58 1347.13,1447.75 1346.5,1447C 1351.56,1444.47 1356.56,1441.97 1361.5,1439.5 Z M 1341.5,1473.5 C 1350.45,1473.95 1355.28,1478.61 1356,1487.5C 1356.67,1497.5 1356.67,1507.5 1356,1517.5C 1347.7,1524.59 1340.03,1523.92 1333,1515.5C 1326.73,1502.92 1327.07,1490.59 1334,1478.5C 1336.17,1476.18 1338.67,1474.51 1341.5,1473.5 Z"/></g>
<g><path style="opacity:0.905" fill="#000000" d="M 1482.5,1439.5 C 1484.5,1439.5 1486.5,1439.5 1488.5,1439.5C 1488.33,1465.5 1488.5,1491.5 1489,1517.5C 1489.31,1518.77 1489.81,1519.93 1490.5,1521C 1492.85,1521.33 1495.18,1521.17 1497.5,1520.5C 1497.67,1521.82 1497.34,1522.99 1496.5,1524C 1490.5,1527.28 1484.17,1529.44 1477.5,1530.5C 1477.66,1528.14 1477.5,1525.81 1477,1523.5C 1460.92,1535.14 1448.25,1532.14 1439,1514.5C 1434.54,1499.51 1437.71,1486.34 1448.5,1475C 1457.76,1468.38 1467.26,1467.88 1477,1473.5C 1477.39,1465.82 1477.05,1458.15 1476,1450.5C 1473.98,1448.27 1471.64,1447.94 1469,1449.5C 1468.31,1448.97 1467.81,1448.31 1467.5,1447.5C 1472.37,1444.57 1477.37,1441.9 1482.5,1439.5 Z M 1462.5,1473.5 C 1471.1,1474.27 1475.94,1478.94 1477,1487.5C 1477.67,1497.5 1477.67,1507.5 1477,1517.5C 1466.27,1525.68 1457.94,1523.68 1452,1511.5C 1448.15,1500.51 1448.82,1489.84 1454,1479.5C 1456.32,1476.6 1459.16,1474.6 1462.5,1473.5 Z"/></g>
<g><path style="opacity:0.906" fill="#000000" d="M 1668.5,1439.5 C 1670.17,1439.5 1671.83,1439.5 1673.5,1439.5C 1673.11,1465.86 1673.61,1492.19 1675,1518.5C 1676.36,1521.55 1678.53,1522.22 1681.5,1520.5C 1682.5,1520.83 1683.17,1521.5 1683.5,1522.5C 1677.13,1526.73 1670.13,1529.4 1662.5,1530.5C 1662.66,1528.14 1662.5,1525.81 1662,1523.5C 1651.33,1532.83 1640.67,1532.83 1630,1523.5C 1618.59,1505.57 1620.43,1489.07 1635.5,1474C 1644.05,1468.65 1652.88,1468.15 1662,1472.5C 1662.67,1465.5 1662.67,1458.5 1662,1451.5C 1660.42,1448.45 1658.09,1447.78 1655,1449.5C 1653.81,1448.44 1653.31,1447.1 1653.5,1445.5C 1658.88,1444.27 1663.88,1442.27 1668.5,1439.5 Z M 1648.5,1473.5 C 1655.55,1474.05 1660.05,1477.71 1662,1484.5C 1662.67,1495.83 1662.67,1507.17 1662,1518.5C 1648.46,1525.74 1639.8,1521.74 1636,1506.5C 1634.04,1497.51 1635.04,1488.84 1639,1480.5C 1641.53,1477.12 1644.7,1474.78 1648.5,1473.5 Z"/></g>
<g><path style="opacity:0.875" fill="#000000" d="M 1967.5,1439.5 C 1969.5,1439.5 1971.5,1439.5 1973.5,1439.5C 1973.33,1465.84 1973.5,1492.17 1974,1518.5C 1974.41,1520.41 1975.57,1521.41 1977.5,1521.5C 1979.13,1520.95 1980.8,1520.62 1982.5,1520.5C 1982.67,1521.82 1982.34,1522.99 1981.5,1524C 1975.07,1527.09 1968.4,1529.26 1961.5,1530.5C 1961.66,1528.14 1961.5,1525.81 1961,1523.5C 1951.83,1531.79 1941.99,1532.62 1931.5,1526C 1919.16,1511.22 1918.33,1495.72 1929,1479.5C 1937.88,1469.05 1948.55,1466.71 1961,1472.5C 1961.74,1464.46 1961.57,1456.46 1960.5,1448.5C 1958.21,1448.24 1956.04,1448.58 1954,1449.5C 1952.81,1448.44 1952.31,1447.1 1952.5,1445.5C 1957.88,1444.27 1962.88,1442.27 1967.5,1439.5 Z M 1947.5,1473.5 C 1954.12,1473.95 1958.62,1477.28 1961,1483.5C 1961.67,1495.17 1961.67,1506.83 1961,1518.5C 1947.46,1525.74 1938.8,1521.74 1935,1506.5C 1933.48,1499.23 1933.81,1491.89 1936,1484.5C 1938.44,1479.23 1942.27,1475.56 1947.5,1473.5 Z"/></g>
<g><path style="opacity:0.931" fill="#000000" d="M 2199.5,1439.5 C 2201.17,1439.5 2202.83,1439.5 2204.5,1439.5C 2204.33,1465.17 2204.5,1490.84 2205,1516.5C 2204.46,1523.47 2207.63,1526.47 2214.5,1525.5C 2214.5,1526.5 2214.5,1527.5 2214.5,1528.5C 2204.83,1528.5 2195.17,1528.5 2185.5,1528.5C 2185.5,1527.5 2185.5,1526.5 2185.5,1525.5C 2188.5,1525.75 2191,1524.75 2193,1522.5C 2193.8,1497.8 2193.64,1473.14 2192.5,1448.5C 2190.21,1448.24 2188.04,1448.58 2186,1449.5C 2184.81,1448.44 2184.31,1447.1 2184.5,1445.5C 2189.88,1444.27 2194.88,1442.27 2199.5,1439.5 Z"/></g>
<g><path style="opacity:0.863" fill="#000000" d="M 2231.5,1439.5 C 2240.74,1438.9 2243.41,1442.73 2239.5,1451C 2231.25,1454.08 2227.75,1451.25 2229,1442.5C 2230.04,1441.63 2230.88,1440.63 2231.5,1439.5 Z"/></g>
<g><path style="opacity:0.874" fill="#000000" d="M 2301.5,1439.5 C 2303.5,1439.5 2305.5,1439.5 2307.5,1439.5C 2307.33,1465.84 2307.5,1492.17 2308,1518.5C 2308.41,1520.41 2309.57,1521.41 2311.5,1521.5C 2313.13,1520.95 2314.8,1520.62 2316.5,1520.5C 2316.86,1522.91 2315.86,1524.41 2313.5,1525C 2307.72,1527.73 2301.72,1529.57 2295.5,1530.5C 2295.66,1528.14 2295.5,1525.81 2295,1523.5C 2285.83,1531.79 2275.99,1532.62 2265.5,1526C 2253.16,1511.22 2252.33,1495.72 2263,1479.5C 2271.88,1469.05 2282.55,1466.71 2295,1472.5C 2295.74,1464.46 2295.57,1456.46 2294.5,1448.5C 2292.21,1448.24 2290.04,1448.58 2288,1449.5C 2286.81,1448.44 2286.31,1447.1 2286.5,1445.5C 2291.88,1444.27 2296.88,1442.27 2301.5,1439.5 Z M 2281.5,1473.5 C 2288.12,1473.95 2292.62,1477.28 2295,1483.5C 2295.67,1495.17 2295.67,1506.83 2295,1518.5C 2281.46,1525.74 2272.8,1521.74 2269,1506.5C 2268.15,1499.1 2268.49,1491.77 2270,1484.5C 2272.44,1479.23 2276.27,1475.56 2281.5,1473.5 Z"/></g>
<g><path style="opacity:0.907" fill="#000000" d="M 2422.5,1439.5 C 2424.17,1439.5 2425.83,1439.5 2427.5,1439.5C 2427.11,1466.19 2427.61,1492.86 2429,1519.5C 2430.86,1521.67 2433.03,1522.01 2435.5,1520.5C 2436.5,1520.83 2437.17,1521.5 2437.5,1522.5C 2431.13,1526.73 2424.13,1529.4 2416.5,1530.5C 2416.66,1528.14 2416.5,1525.81 2416,1523.5C 2408.23,1530.91 2399.39,1532.41 2389.5,1528C 2378.87,1519.79 2374.7,1508.96 2377,1495.5C 2380.81,1476.99 2391.98,1468.49 2410.5,1470C 2412.42,1470.36 2414.09,1471.19 2415.5,1472.5C 2416.66,1465.86 2416.83,1459.19 2416,1452.5C 2414.88,1448.49 2412.38,1447.49 2408.5,1449.5C 2407.57,1448.31 2407.24,1446.98 2407.5,1445.5C 2412.88,1444.27 2417.88,1442.27 2422.5,1439.5 Z M 2402.5,1473.5 C 2409.55,1474.05 2414.05,1477.71 2416,1484.5C 2416.67,1495.83 2416.67,1507.17 2416,1518.5C 2404.65,1525.67 2396.31,1523 2391,1510.5C 2387.49,1500.21 2388.16,1490.21 2393,1480.5C 2395.56,1477.08 2398.73,1474.74 2402.5,1473.5 Z"/></g>
<g><path style="opacity:0.904" fill="#000000" d="M 936.5,1443.5 C 952.837,1443.33 969.17,1443.5 985.5,1444C 1009.5,1447.67 1021.83,1461.67 1022.5,1486C 1022.09,1509.41 1010.42,1523.41 987.5,1528C 970.528,1529.32 953.528,1529.82 936.5,1529.5C 936.5,1528.17 936.5,1526.83 936.5,1525.5C 941.635,1526.57 945.468,1524.91 948,1520.5C 948.667,1497.5 948.667,1474.5 948,1451.5C 945.342,1447.44 941.509,1445.77 936.5,1446.5C 936.5,1445.5 936.5,1444.5 936.5,1443.5 Z M 973.5,1448.5 C 992.678,1449.51 1003.85,1459.51 1007,1478.5C 1009.26,1511.41 994.094,1526.07 961.5,1522.5C 961.5,1498.5 961.5,1474.5 961.5,1450.5C 965.664,1450.04 969.664,1449.38 973.5,1448.5 Z"/></g>
<g><path style="opacity:0.901" fill="#000000" d="M 1758.5,1451.5 C 1760.46,1457.41 1761.12,1463.75 1760.5,1470.5C 1764.85,1470.33 1769.18,1470.5 1773.5,1471C 1774.83,1472.67 1774.83,1474.33 1773.5,1476C 1769.18,1476.5 1764.85,1476.67 1760.5,1476.5C 1760.07,1490.89 1760.57,1505.23 1762,1519.5C 1766.34,1522.5 1769.84,1521.66 1772.5,1517C 1773.45,1516.52 1774.45,1516.35 1775.5,1516.5C 1773.27,1526.9 1766.93,1531.06 1756.5,1529C 1752.83,1527.33 1750.67,1524.5 1750,1520.5C 1749.5,1505.84 1749.33,1491.17 1749.5,1476.5C 1746.5,1476.5 1743.5,1476.5 1740.5,1476.5C 1740.24,1475.02 1740.57,1473.69 1741.5,1472.5C 1749.69,1467.63 1755.36,1460.63 1758.5,1451.5 Z"/></g>
<g><path style="opacity:0.932" fill="#000000" d="M 1046.5,1469.5 C 1048.17,1469.5 1049.83,1469.5 1051.5,1469.5C 1051.33,1486.17 1051.5,1502.84 1052,1519.5C 1052.48,1524.81 1055.31,1526.81 1060.5,1525.5C 1060.5,1526.5 1060.5,1527.5 1060.5,1528.5C 1050.83,1528.5 1041.17,1528.5 1031.5,1528.5C 1031.5,1527.5 1031.5,1526.5 1031.5,1525.5C 1035.35,1526.15 1038.19,1524.82 1040,1521.5C 1040.17,1515 1040.33,1508.5 1040.5,1502C 1040.61,1494.43 1040.11,1486.93 1039,1479.5C 1036.87,1478.22 1034.7,1478.22 1032.5,1479.5C 1031.71,1478.76 1031.05,1477.92 1030.5,1477C 1035.77,1474.2 1041.11,1471.7 1046.5,1469.5 Z"/></g>
<g><path style="opacity:0.875" fill="#000000" d="M 1151.5,1469.5 C 1169.69,1467.37 1179.36,1475.37 1180.5,1493.5C 1167.5,1493.5 1154.5,1493.5 1141.5,1493.5C 1141.28,1505.24 1146.28,1513.74 1156.5,1519C 1166.64,1520.93 1173.64,1517.09 1177.5,1507.5C 1178.32,1506.61 1179.32,1506.28 1180.5,1506.5C 1177.26,1525.45 1166.26,1532.95 1147.5,1529C 1138.55,1524.61 1133.38,1517.44 1132,1507.5C 1129.61,1494.39 1133.11,1483.22 1142.5,1474C 1145.44,1472.2 1148.44,1470.7 1151.5,1469.5 Z M 1151.5,1474.5 C 1161.68,1473.68 1166.68,1478.35 1166.5,1488.5C 1158.17,1488.5 1149.83,1488.5 1141.5,1488.5C 1142.41,1481.99 1145.74,1477.33 1151.5,1474.5 Z"/></g>
<g><path style="opacity:0.853" fill="#000000" d="M 1199.5,1469.5 C 1201.5,1469.5 1203.5,1469.5 1205.5,1469.5C 1205.33,1472.85 1205.5,1476.18 1206,1479.5C 1209.51,1471.99 1215.34,1468.82 1223.5,1470C 1227.89,1473.18 1228.56,1477.01 1225.5,1481.5C 1223.57,1482.52 1221.57,1482.69 1219.5,1482C 1217.24,1480.95 1215.07,1479.79 1213,1478.5C 1209.62,1480.22 1207.29,1482.88 1206,1486.5C 1205.33,1498.17 1205.33,1509.83 1206,1521.5C 1208.19,1524.96 1211.36,1526.3 1215.5,1525.5C 1215.67,1526.82 1215.34,1527.99 1214.5,1529C 1204.59,1529.82 1194.76,1529.65 1185,1528.5C 1184.38,1527.55 1184.55,1526.72 1185.5,1526C 1188.46,1525.77 1190.96,1524.6 1193,1522.5C 1193.67,1508.5 1193.67,1494.5 1193,1480.5C 1190.79,1478.29 1188.29,1477.96 1185.5,1479.5C 1184.57,1478.31 1184.24,1476.98 1184.5,1475.5C 1189.88,1474.27 1194.88,1472.27 1199.5,1469.5 Z"/></g>
<g><path style="opacity:0.87" fill="#000000" d="M 1244.5,1469.5 C 1250.62,1469.18 1256.62,1469.84 1262.5,1471.5C 1264.33,1470.25 1266.33,1469.58 1268.5,1469.5C 1268.5,1476.17 1268.5,1482.83 1268.5,1489.5C 1267.18,1489.67 1266.01,1489.34 1265,1488.5C 1261.94,1474.47 1254.27,1470.8 1242,1477.5C 1240.86,1481.39 1241.69,1484.72 1244.5,1487.5C 1252.92,1492.12 1261.08,1497.12 1269,1502.5C 1275.75,1515.57 1272.25,1524.74 1258.5,1530C 1251.9,1530.83 1245.4,1530.33 1239,1528.5C 1236.86,1529.08 1234.7,1529.41 1232.5,1529.5C 1232.5,1522.5 1232.5,1515.5 1232.5,1508.5C 1233.83,1508.5 1235.17,1508.5 1236.5,1508.5C 1238.35,1522.74 1246.02,1527.9 1259.5,1524C 1263.32,1520.04 1263.49,1515.88 1260,1511.5C 1254.02,1506.87 1247.52,1503.04 1240.5,1500C 1230.69,1491.67 1230.02,1482.67 1238.5,1473C 1240.43,1471.54 1242.43,1470.37 1244.5,1469.5 Z"/></g>
<g><path style="opacity:0.874" fill="#000000" d="M 1295.5,1469.5 C 1297.5,1469.5 1299.5,1469.5 1301.5,1469.5C 1301.33,1487.17 1301.5,1504.84 1302,1522.5C 1303.81,1525.04 1306.31,1526.04 1309.5,1525.5C 1309.5,1526.5 1309.5,1527.5 1309.5,1528.5C 1299.81,1528.83 1290.14,1528.5 1280.5,1527.5C 1283.37,1526.05 1286.2,1524.38 1289,1522.5C 1289.67,1508.83 1289.67,1495.17 1289,1481.5C 1287.28,1478.38 1284.78,1477.72 1281.5,1479.5C 1280.17,1478.17 1280.17,1476.83 1281.5,1475.5C 1286.35,1473.67 1291.02,1471.67 1295.5,1469.5 Z"/></g>
<g><path style="opacity:0.887" fill="#000000" d="M 1396.5,1469.5 C 1401.84,1469.33 1407.18,1469.5 1412.5,1470C 1416.47,1470.96 1419.64,1473.13 1422,1476.5C 1423.28,1490.1 1423.95,1503.76 1424,1517.5C 1424.2,1519.29 1425.03,1520.62 1426.5,1521.5C 1428.94,1520.2 1431.1,1518.53 1433,1516.5C 1432.68,1522.53 1429.51,1526.7 1423.5,1529C 1416.65,1531.47 1412.82,1528.97 1412,1521.5C 1407.08,1526.21 1401.24,1529.21 1394.5,1530.5C 1381.41,1527.11 1377.58,1519.11 1383,1506.5C 1391.06,1498.72 1400.56,1493.38 1411.5,1490.5C 1413.34,1484.51 1412,1479.34 1407.5,1475C 1397.59,1472.23 1393.09,1476.06 1394,1486.5C 1391.45,1490.93 1388.12,1491.59 1384,1488.5C 1382.08,1484.38 1382.42,1480.38 1385,1476.5C 1388.51,1473.5 1392.35,1471.17 1396.5,1469.5 Z M 1409.5,1495.5 C 1410.5,1495.5 1411.5,1495.5 1412.5,1495.5C 1412.83,1502.53 1412.5,1509.53 1411.5,1516.5C 1407.26,1520.52 1402.26,1522.02 1396.5,1521C 1390.17,1514.53 1390.51,1508.2 1397.5,1502C 1401.69,1500.07 1405.69,1497.91 1409.5,1495.5 Z"/></g>
<g><path style="opacity:0.875" fill="#000000" d="M 1703.5,1469.5 C 1711.21,1468.66 1718.54,1469.83 1725.5,1473C 1727.05,1474.21 1728.22,1475.71 1729,1477.5C 1730.22,1491.46 1730.89,1505.46 1731,1519.5C 1731.31,1520.31 1731.81,1520.97 1732.5,1521.5C 1735.11,1520.22 1737.45,1518.55 1739.5,1516.5C 1739.83,1517.17 1740.17,1517.83 1740.5,1518.5C 1737.39,1524.49 1732.56,1528.49 1726,1530.5C 1721.51,1529.18 1719.01,1526.18 1718.5,1521.5C 1713.83,1526.33 1708.17,1529.33 1701.5,1530.5C 1692.57,1529.07 1687.57,1523.91 1686.5,1515C 1687.82,1508.67 1691.16,1503.67 1696.5,1500C 1703.29,1496.35 1710.29,1493.18 1717.5,1490.5C 1720.61,1481.61 1717.78,1475.94 1709,1473.5C 1706.49,1474.11 1704.15,1475.11 1702,1476.5C 1701.16,1480.98 1699.99,1485.31 1698.5,1489.5C 1692.64,1491.74 1689.64,1489.74 1689.5,1483.5C 1691.17,1475.83 1695.83,1471.17 1703.5,1469.5 Z M 1716.5,1495.5 C 1717.82,1498.6 1718.49,1502.1 1718.5,1506C 1720.61,1513.77 1717.95,1518.77 1710.5,1521C 1702.86,1522.85 1698.86,1519.85 1698.5,1512C 1699.14,1507.34 1701.48,1503.67 1705.5,1501C 1709.26,1499.12 1712.93,1497.29 1716.5,1495.5 Z"/></g>
<g><path style="opacity:0.893" fill="#000000" d="M 1800.5,1469.5 C 1821.98,1467.98 1833.65,1477.98 1835.5,1499.5C 1831.93,1525.93 1817.6,1535.1 1792.5,1527C 1783.63,1520.25 1778.96,1511.25 1778.5,1500C 1779.39,1485.01 1786.72,1474.84 1800.5,1469.5 Z M 1800.5,1474.5 C 1812.1,1473.59 1818.94,1478.93 1821,1490.5C 1823.48,1500.74 1822.82,1510.74 1819,1520.5C 1811.78,1527.25 1804.78,1526.92 1798,1519.5C 1791.27,1507.38 1789.94,1494.71 1794,1481.5C 1795.69,1478.64 1797.86,1476.31 1800.5,1474.5 Z"/></g>
<g><path style="opacity:0.89" fill="#000000" d="M 1856.5,1469.5 C 1862.79,1469.12 1868.96,1469.79 1875,1471.5C 1876.57,1470.14 1878.4,1469.48 1880.5,1469.5C 1880.5,1476.17 1880.5,1482.83 1880.5,1489.5C 1879.5,1489.5 1878.5,1489.5 1877.5,1489.5C 1875.23,1475.62 1867.73,1471.29 1855,1476.5C 1853.15,1479.46 1853.15,1482.46 1855,1485.5C 1861.79,1491.15 1869.29,1495.65 1877.5,1499C 1888.41,1510.12 1887.41,1520.12 1874.5,1529C 1866.81,1530.96 1859.15,1530.79 1851.5,1528.5C 1849.49,1528.84 1847.49,1529.17 1845.5,1529.5C 1845.5,1522.5 1845.5,1515.5 1845.5,1508.5C 1846.5,1508.5 1847.5,1508.5 1848.5,1508.5C 1850.74,1521.28 1858.08,1526.78 1870.5,1525C 1876.14,1518.8 1875.48,1513.13 1868.5,1508C 1862.68,1505.25 1857.01,1502.25 1851.5,1499C 1844.96,1492.4 1843.79,1484.9 1848,1476.5C 1850.44,1473.55 1853.27,1471.21 1856.5,1469.5 Z"/></g>
<g><path style="opacity:0.871" fill="#000000" d="M 2006.5,1469.5 C 2024.71,1467.39 2034.38,1475.39 2035.5,1493.5C 2022.5,1493.5 2009.5,1493.5 1996.5,1493.5C 1996.08,1502.42 1999.08,1509.92 2005.5,1516C 2017.44,1522.58 2026.27,1519.74 2032,1507.5C 2033.01,1506.66 2034.18,1506.33 2035.5,1506.5C 2032.24,1525.46 2021.24,1532.96 2002.5,1529C 1993.91,1524.74 1988.74,1517.91 1987,1508.5C 1984.4,1495.04 1987.9,1483.54 1997.5,1474C 2000.32,1471.92 2003.32,1470.42 2006.5,1469.5 Z M 2006.5,1474.5 C 2015.97,1474.31 2020.97,1478.97 2021.5,1488.5C 2013.17,1488.5 2004.83,1488.5 1996.5,1488.5C 1997.18,1481.83 2000.52,1477.17 2006.5,1474.5 Z"/></g>
<g><path style="opacity:0.894" fill="#000000" d="M 2091.5,1469.5 C 2098.88,1468.69 2105.88,1469.86 2112.5,1473C 2117.53,1476.23 2119.37,1480.73 2118,1486.5C 2113.75,1490.41 2109.75,1490.07 2106,1485.5C 2104.58,1474.15 2098.75,1471.32 2088.5,1477C 2080.73,1489.01 2080.57,1501.17 2088,1513.5C 2095.56,1521.29 2103.56,1521.96 2112,1515.5C 2113.97,1512.03 2116.14,1508.7 2118.5,1505.5C 2119.5,1505.83 2120.17,1506.5 2120.5,1507.5C 2114.38,1529.06 2101.38,1535.06 2081.5,1525.5C 2072.91,1516.14 2069.74,1505.14 2072,1492.5C 2074.79,1481.56 2081.29,1473.89 2091.5,1469.5 Z"/></g>
<g><path style="opacity:0.889" fill="#000000" d="M 2144.5,1469.5 C 2149.84,1469.33 2155.18,1469.5 2160.5,1470C 2166.48,1471.64 2169.98,1475.47 2171,1481.5C 2171.33,1494.17 2171.67,1506.83 2172,1519.5C 2172.69,1520.36 2173.52,1521.02 2174.5,1521.5C 2176.5,1519.83 2178.5,1518.17 2180.5,1516.5C 2181.07,1520.22 2179.74,1523.39 2176.5,1526C 2173.64,1528.18 2170.47,1529.68 2167,1530.5C 2162.53,1529.24 2160.19,1526.24 2160,1521.5C 2155.08,1526.21 2149.24,1529.21 2142.5,1530.5C 2130.98,1528.15 2126.48,1521.15 2129,1509.5C 2131.5,1505 2135,1501.5 2139.5,1499C 2146.26,1495.47 2153.26,1492.64 2160.5,1490.5C 2159.99,1486.11 2159.16,1481.78 2158,1477.5C 2153.3,1472.83 2148.3,1472.49 2143,1476.5C 2142.16,1480.98 2140.99,1485.31 2139.5,1489.5C 2136.1,1491.19 2133.26,1490.52 2131,1487.5C 2129.48,1480.38 2131.98,1475.21 2138.5,1472C 2140.61,1471.16 2142.61,1470.32 2144.5,1469.5 Z M 2157.5,1495.5 C 2158.5,1495.5 2159.5,1495.5 2160.5,1495.5C 2160.67,1502.17 2160.5,1508.84 2160,1515.5C 2155.45,1520.54 2149.95,1522.2 2143.5,1520.5C 2137.82,1513.71 2138.49,1507.54 2145.5,1502C 2149.43,1499.54 2153.43,1497.37 2157.5,1495.5 Z"/></g>
<g><path style="opacity:0.928" fill="#000000" d="M 2234.5,1469.5 C 2236.5,1469.5 2238.5,1469.5 2240.5,1469.5C 2240.33,1486.5 2240.5,1503.5 2241,1520.5C 2242.06,1524.95 2244.9,1526.62 2249.5,1525.5C 2249.5,1526.5 2249.5,1527.5 2249.5,1528.5C 2239.83,1528.5 2230.17,1528.5 2220.5,1528.5C 2220.5,1527.5 2220.5,1526.5 2220.5,1525.5C 2223.27,1525.78 2225.77,1525.11 2228,1523.5C 2229.11,1516.58 2229.61,1509.58 2229.5,1502.5C 2229.57,1494.78 2229.07,1487.12 2228,1479.5C 2225.67,1478.17 2223.33,1478.17 2221,1479.5C 2220.63,1478.58 2220.13,1477.75 2219.5,1477C 2224.56,1474.47 2229.56,1471.97 2234.5,1469.5 Z"/></g>
<g><path style="opacity:0.876" fill="#000000" d="M 2336.5,1469.5 C 2344.21,1468.66 2351.54,1469.83 2358.5,1473C 2360.05,1474.21 2361.22,1475.71 2362,1477.5C 2363.24,1491.45 2363.91,1505.45 2364,1519.5C 2364.39,1520.43 2365.05,1521.09 2366,1521.5C 2368.3,1520.04 2370.46,1518.37 2372.5,1516.5C 2372.83,1517.17 2373.17,1517.83 2373.5,1518.5C 2370.39,1524.49 2365.56,1528.49 2359,1530.5C 2354.64,1529.14 2352.14,1526.14 2351.5,1521.5C 2346.83,1526.33 2341.17,1529.33 2334.5,1530.5C 2322.57,1528.39 2318.07,1521.39 2321,1509.5C 2322.78,1505.39 2325.61,1502.22 2329.5,1500C 2336.29,1496.35 2343.29,1493.18 2350.5,1490.5C 2352.41,1484.68 2351.41,1479.51 2347.5,1475C 2343.05,1472.92 2338.89,1473.42 2335,1476.5C 2334.16,1480.98 2332.99,1485.31 2331.5,1489.5C 2325.64,1491.74 2322.64,1489.74 2322.5,1483.5C 2324.17,1475.83 2328.83,1471.17 2336.5,1469.5 Z M 2349.5,1495.5 C 2350.82,1498.6 2351.49,1502.1 2351.5,1506C 2353.61,1513.77 2350.95,1518.77 2343.5,1521C 2335.86,1522.85 2331.86,1519.85 2331.5,1512C 2331.8,1507.69 2333.8,1504.36 2337.5,1502C 2341.43,1499.54 2345.43,1497.37 2349.5,1495.5 Z"/></g>
<g><path style="opacity:0.864" fill="#000000" d="M 1063.5,1470.5 C 1072.83,1470.5 1082.17,1470.5 1091.5,1470.5C 1091.5,1471.83 1091.5,1473.17 1091.5,1474.5C 1088.11,1473.79 1085.78,1474.96 1084.5,1478C 1088.94,1489.99 1093.78,1501.83 1099,1513.5C 1104.03,1501.41 1108.86,1489.25 1113.5,1477C 1113.36,1476.23 1113.02,1475.56 1112.5,1475C 1110.83,1474.67 1109.17,1474.33 1107.5,1474C 1106.66,1472.99 1106.33,1471.82 1106.5,1470.5C 1113.17,1470.5 1119.83,1470.5 1126.5,1470.5C 1126.5,1471.83 1126.5,1473.17 1126.5,1474.5C 1123.68,1474.08 1121.51,1475.08 1120,1477.5C 1112.28,1494.67 1104.94,1512 1098,1529.5C 1095.98,1530.99 1094.31,1530.66 1093,1528.5C 1086.31,1510.41 1078.48,1492.91 1069.5,1476C 1067.65,1474.87 1065.65,1474.37 1063.5,1474.5C 1063.5,1473.17 1063.5,1471.83 1063.5,1470.5 Z"/></g>
<g><path style="opacity:0.872" fill="#000000" d="M 1526.5,1470.5 C 1535.5,1470.5 1544.5,1470.5 1553.5,1470.5C 1553.5,1471.83 1553.5,1473.17 1553.5,1474.5C 1550.14,1473.79 1547.8,1474.96 1546.5,1478C 1551.52,1489.2 1556.68,1500.37 1562,1511.5C 1566.71,1501.36 1571.05,1491.03 1575,1480.5C 1576.57,1476.08 1575.07,1474.08 1570.5,1474.5C 1570.5,1473.17 1570.5,1471.83 1570.5,1470.5C 1576.83,1470.5 1583.17,1470.5 1589.5,1470.5C 1589.5,1471.83 1589.5,1473.17 1589.5,1474.5C 1584.74,1474.96 1581.9,1477.63 1581,1482.5C 1572.61,1503.61 1563.94,1524.61 1555,1545.5C 1550.39,1553.39 1543.55,1556.89 1534.5,1556C 1529.86,1553.93 1528.36,1550.43 1530,1545.5C 1534.68,1541.87 1539.52,1541.87 1544.5,1545.5C 1547.09,1544.41 1549.26,1542.74 1551,1540.5C 1553.11,1535.94 1554.95,1531.27 1556.5,1526.5C 1549.08,1509.16 1540.75,1492.33 1531.5,1476C 1529.98,1474.99 1528.31,1474.49 1526.5,1474.5C 1526.5,1473.17 1526.5,1471.83 1526.5,1470.5 Z"/></g>
</svg>
